<svg xmlns="http://www.w3.org/2000/svg" style="display:none"><symbol id="christmas-tree" viewbox="0 0 511.999 511.999"><path d="M470.954 500.532L372.59 332.53H139.416L41.068 500.532a7.49 7.49 0 0 0 0 7.651c1.371 2.355 3.919 3.816 6.694 3.816h416.469a7.824 7.824 0 0 0 6.723-3.816 7.63 7.63 0 0 0 0-7.651z" fill="#00997c"/><path d="M97.522 508.184a7.49 7.49 0 0 1 0-7.651l98.347-168.002h-56.453L41.068 500.532a7.49 7.49 0 0 0 0 7.651c1.371 2.355 3.919 3.816 6.694 3.816h56.454c-2.776.001-5.324-1.46-6.694-3.815z" fill="#414042" opacity=".2"/><path d="M403.179 342.598l-80.367-137.259H189.179l-80.366 137.259a7.63 7.63 0 0 0 0 7.653 7.83 7.83 0 0 0 6.723 3.817h280.922c2.77 0 5.32-1.464 6.724-3.817a7.66 7.66 0 0 0-.003-7.653z" fill="#00b494"/><path d="M163.251 350.251a7.63 7.63 0 0 1 0-7.653l80.366-137.259h-54.439l-80.366 137.259a7.63 7.63 0 0 0 0 7.653 7.83 7.83 0 0 0 6.723 3.817h54.44a7.832 7.832 0 0 1-6.724-3.817z" fill="#414042" opacity=".2"/><path d="M163.461 224.743c-2.807 0-5.354-1.465-6.724-3.818a7.48 7.48 0 0 1 0-7.653L249.27 55.181a7.791 7.791 0 0 1 6.725-3.818 7.788 7.788 0 0 1 6.725 3.818l92.535 158.091a7.502 7.502 0 0 1 0 7.653c-1.372 2.353-3.953 3.818-6.725 3.818H163.461z" fill="#00997c"/><path d="M201.95 220.925a7.48 7.48 0 0 1 0-7.653L278.6 82.315l-15.881-27.134a7.787 7.787 0 0 0-6.725-3.818 7.793 7.793 0 0 0-6.725 3.818l-92.533 158.091a7.48 7.48 0 0 0 0 7.653c1.37 2.353 3.917 3.818 6.724 3.818h45.213c-2.806 0-5.353-1.465-6.723-3.818z" fill="#414042" opacity=".2"/><g fill="#f0d355"><path d="M282.857 101.558a9.297 9.297 0 0 1-3.043-.511l-24.067-8.299-24.074 8.299a9.34 9.34 0 0 1-8.52-1.257 9.25 9.25 0 0 1-3.832-7.676l.489-25.34-15.37-20.203a9.216 9.216 0 0 1-1.43-8.45 9.324 9.324 0 0 1 6.144-6.008l24.381-7.354 14.573-20.791A9.325 9.325 0 0 1 255.748 0a9.302 9.302 0 0 1 7.619 3.967l14.583 20.791 24.373 7.354a9.282 9.282 0 0 1 6.144 6.008 9.228 9.228 0 0 1-1.431 8.45l-15.358 20.203.487 25.34a9.262 9.262 0 0 1-3.837 7.676 9.397 9.397 0 0 1-5.471 1.769z"/><circle cx="226.356" cy="189.168" r="12.935"/></g><circle cx="285.643" cy="189.168" r="12.935" fill="#fff"/><circle cx="165.459" cy="320.669" r="12.935" fill="#f0d355"/><circle cx="225.823" cy="320.669" r="12.935" fill="#fff"/><circle cx="286.176" cy="320.669" r="12.935" fill="#f0d355"/><circle cx="346.54" cy="320.669" r="12.935" fill="#fff"/><circle cx="105.095" cy="474.812" r="12.935" fill="#f0d355"/><circle cx="165.459" cy="474.812" r="12.935" fill="#fff"/><circle cx="225.823" cy="474.812" r="12.935" fill="#f0d355"/><circle cx="286.176" cy="474.812" r="12.935" fill="#fff"/><circle cx="346.54" cy="474.812" r="12.935" fill="#f0d355"/><circle cx="406.904" cy="474.812" r="12.935" fill="#fff"/><path d="M241.502 61.925c-10.238-10.238-16.719-22.35-19.033-33.828l-13.316 4.017a9.324 9.324 0 0 0-6.144 6.008 9.222 9.222 0 0 0 1.43 8.45l15.369 20.203-.489 25.34a9.25 9.25 0 0 0 3.832 7.676 9.344 9.344 0 0 0 8.52 1.257l24.074-8.299 24.067 8.299c.986.341 2.01.511 3.043.511a9.392 9.392 0 0 0 5.469-1.768 9.26 9.26 0 0 0 3.837-7.676l-.21-10.916c-15.346 3.067-35.025-3.851-50.449-19.274z" fill="#414042" opacity=".1"/></symbol><symbol id="newbow" viewbox="0 0 512 512"><path fill="#ed5d51" d="M316.741 210.235h-121.48L17.695 402.038l70.665 13.7 12.681 76.328L256 324.686l154.958 167.38 12.681-76.328 70.666-13.7z"/><path fill="#414042" d="M61.979 406.905l181.876-196.67h-48.594L17.695 402.038z" opacity=".2"/><path d="M497.501 24.482a30.207 30.207 0 0 0-29.683-1.239L256 131.395 44.18 23.243a30.196 30.196 0 0 0-29.682 1.239C5.489 30.068 0 39.973 0 50.643v238.496c0 10.669 5.489 20.575 14.498 26.162a30.19 30.19 0 0 0 29.682 1.238L256 208.387l211.819 108.151a30.205 30.205 0 0 0 13.744 3.31 30.229 30.229 0 0 0 15.939-4.548C506.51 309.713 512 299.808 512 289.138V50.643c0-10.67-5.49-20.575-14.499-26.161z" fill="#00b494"/><path d="M43.655 289.138V50.643a30.834 30.834 0 0 1 9.866-22.631l-9.339-4.769A30.196 30.196 0 0 0 14.5 24.482C5.489 30.068 0 39.973 0 50.643v238.496c0 10.669 5.489 20.575 14.498 26.162a30.19 30.19 0 0 0 29.682 1.238l9.339-4.769c-6.22-5.756-9.864-13.94-9.864-22.632z" fill="#414042" opacity=".2"/><path d="M416.641 181.155H95.359a7.837 7.837 0 0 1 0-15.674h321.282a7.837 7.837 0 0 1 0 15.674z" fill="#007f67"/><path d="M336.199 236.41c0 22.621-18.258 40.96-40.778 40.96H216.58c-22.522 0-40.779-18.339-40.779-40.96V105.336c0-22.621 18.257-40.96 40.779-40.96h78.841c22.522 0 40.778 18.339 40.778 40.96V236.41z" fill="#d84f48"/><path d="M220.638 236.41V105.336c0-22.621 18.259-40.96 40.778-40.96h-44.837c-22.522 0-40.779 18.339-40.779 40.96V236.41c0 22.621 18.257 40.96 40.779 40.96h44.837c-22.52 0-40.778-18.339-40.778-40.96z" opacity=".2" fill="#414042"/></symbol><symbol id="reindeer" viewbox="0 0 512 512"><g fill="#00b494"><path d="M190.475 105.318h-21.873V75.914c0-9.433-7.634-17.081-17.051-17.081S134.5 66.481 134.5 75.914v29.404h-13.762c-8.485 0-15.386-7.033-15.386-15.679V27.394c0-9.433-7.634-17.082-17.051-17.082S71.252 17.96 71.252 27.394V89.64c0 27.484 22.2 49.842 49.487 49.842h52.685v81.199c0 9.433 7.634 17.082 17.052 17.082 9.417 0 17.051-7.648 17.051-17.082V122.4c-.001-9.434-7.635-17.082-17.052-17.082zM423.501 10.312c-9.417 0-17.051 7.648-17.051 17.082V89.64c0 8.645-6.902 15.679-15.385 15.679h-13.763V75.914c0-9.433-7.634-17.081-17.051-17.081-9.417 0-17.051 7.648-17.051 17.081v29.404h-21.872c-9.417 0-17.051 7.648-17.051 17.082v98.281c0 9.433 7.634 17.082 17.051 17.082s17.051-7.648 17.051-17.082v-81.199h52.686c27.286 0 49.486-22.358 49.486-49.842V27.394c.001-9.434-7.634-17.082-17.05-17.082z"/></g><path d="M372.941 248.94a8.978 8.978 0 0 1-8.977-8.979v-51.267c0-4.96 4.019-8.98 8.977-8.98h130.082c4.958 0 8.977 4.02 8.977 8.98 0 16.634-8.603 32.083-24.224 43.5-14.774 10.798-34.267 16.744-54.893 16.744H372.94v.002zM79.117 248.94c-20.624 0-40.119-5.947-54.893-16.744C8.603 220.776 0 205.328 0 188.694c0-4.96 4.02-8.98 8.978-8.98H139.06c4.958 0 8.977 4.02 8.977 8.98v51.267a8.978 8.978 0 0 1-8.977 8.979H79.117z" fill="#a67c52"/><path d="M79.117 248.94c-20.624 0-40.119-5.947-54.893-16.744C8.603 220.776 0 205.328 0 188.694c0-4.96 4.02-8.98 8.978-8.98H139.06c4.958 0 8.977 4.02 8.977 8.98v51.267a8.978 8.978 0 0 1-8.977 8.979H79.117z" fill="#a67c52"/><path d="M112.705 226.897c-20.624 0-40.119-5.947-54.892-16.746-11.432-8.357-19.087-18.878-22.38-30.437H8.978A8.979 8.979 0 0 0 0 188.694c0 16.634 8.603 32.083 24.224 43.5 14.774 10.798 34.268 16.744 54.893 16.744h59.944a8.978 8.978 0 0 0 8.977-8.979v-13.063l-35.333.001z" opacity=".1" fill="#414042"/><path d="M106.113 179.715V349.89c0 83.835 67.287 151.798 150.291 151.798s150.293-67.962 150.293-151.798V179.715H106.113z" fill="#c69c6d"/><path d="M139.558 349.889V179.715h-33.445V349.89c0 83.835 67.287 151.798 150.291 151.798 5.66 0 11.247-.321 16.745-.937-75.143-8.393-133.591-72.728-133.591-150.862z" opacity=".1" fill="#414042"/><path d="M256 330.107c-38.428 0-69.58 31.464-69.58 70.278v84.079c20.806 10.996 44.47 17.224 69.58 17.224s48.774-6.228 69.58-17.224v-84.079c0-38.814-31.152-70.278-69.58-70.278z" fill="#a67c52"/><ellipse cx="256" cy="363.698" rx="33.531" ry="33.593" fill="#ed5d51"/><g fill="#636052"><path d="M345.493 301.298c0 10.013-8.114 18.131-18.125 18.131-10.008 0-18.127-8.118-18.127-18.131 0-10.011 8.119-18.13 18.127-18.13 10.012 0 18.125 8.119 18.125 18.13zM203.566 301.298c0 10.013-8.115 18.131-18.125 18.131-10.008 0-18.126-8.118-18.126-18.131 0-10.011 8.119-18.13 18.126-18.13 10.01 0 18.125 8.119 18.125 18.13z"/></g></symbol><symbol id="tag" viewbox="0 0 512 512"><path d="M503.955 92.652l-84.003-84.68A26.874 26.874 0 0 0 395.789.484L243.531 29.833a26.924 26.924 0 0 0-14.019 7.488L8.045 260.571c-10.545 10.63-10.545 27.86 0 38.492l203.327 204.965c10.545 10.63 27.64 10.63 38.185 0l215.737-217.475a27.277 27.277 0 0 0 7.098-12.626l38.66-155.408c2.308-9.281-.387-19.102-7.097-25.867zm-76.541 41.086c-14.354 14.472-37.632 14.472-51.988 0-14.357-14.472-14.357-37.936-.001-52.406 14.357-14.473 37.633-14.472 51.989 0 14.355 14.472 14.357 37.934 0 52.406z" fill="#d84f48"/><path d="M64.499 299.063c-10.546-10.632-10.546-27.862 0-38.492l221.465-223.25a26.93 26.93 0 0 1 14.019-7.488l118.86-22.911A26.854 26.854 0 0 0 395.788.484L243.531 29.833a26.924 26.924 0 0 0-14.019 7.488L8.045 260.571c-10.545 10.63-10.545 27.86 0 38.492l203.327 204.965c10.545 10.63 27.64 10.63 38.185 0l9.134-9.209L64.499 299.063z" opacity=".1" fill="#414042"/><g fill="#00b494"><path d="M230.016 252.624l-34.56-34.84-45.393.005 34.562 34.84zM241.339 241.079l.006-45.76-34.496-34.773-.006 45.759zM257.508 241.075l34.504-34.782.005-45.757-34.503 34.783zM303.399 217.773l-34.567 34.847 45.392-.006 34.568-34.846zM268.827 268.789l35.004 35.286 44.952-.451-34.565-34.842zM257.503 280.333l-.005 45.758 34.499 34.775-.458-46.223zM230.012 268.793l-45.39.004-34.569 34.847 45.852-.47zM241.335 280.337l-34.948 35.23.441 45.309 34.501-34.781z"/></g><path d="M390.864 118.177c-6.439-6.492-6.44-17.017-.001-23.507l77.732-78.358a16.398 16.398 0 0 1 23.32 0c6.439 6.492 6.439 17.017 0 23.507l-77.732 78.358a16.395 16.395 0 0 1-23.319 0z" fill="#f0d355"/></symbol></svg>